# xmcd
#
# Track frame offsets:
#	150
#	20243
#	39383
#	58573
#	75515
#	93643
#	110825
#	122828
#	137463
#	150398
#	172700
#	192378
#	209435
#
# Disc length: 3067 seconds
# Revision: 5
# Processed by: cddbd v1.5.2PL0 Copyright (c) Steve Scherf et al.
# Submitted via: dBpowerAMP V12.0
#
DISCID=aa0bf90d
DTITLE=Various Artist - Testifying
DYEAR=2004
DGENRE=Country
TTITLE0=The Country Soul Revue ft. Tony Joe White - Who You Gonna Hoo-Doo Now
TTITLE1=The Country Soul Revue ft. George Soule - Jaguar Man
TTITLE2=The Country Soul Revue ft. Larry Jon Wilson - Sapelo
TTITLE3=The Country Soul Revue ft. George Soule - It's Over
TTITLE4=The Country Soul Revue ft. Larry Jon Wilson - Friday Night Fight At Al's
TTITLE5=The Country Soul Revue ft. Bonnie Bramlett - Where's Eddie
TTITLE6=The Country Soul Revue ft. Dan Penn - Chicago Afterwhile
TTITLE7=The Country Soul Revue ft. George Soule - I'm Only Human
TTITLE8=The Country Soul Revue ft. Donnie Fritts - Adios Amigos
TTITLE9=The Country Soul Revue - Super Soul Beat
TTITLE10=The Country Soul Revue ft. Donnie Fritts - Sumpin' Funky Goingon
TTITLE11=The Country Soul Revue ft. Dan Penn - Rest Of My Life
TTITLE12=The Country Soul Revue ft. Tony Joe White - Drifter
EXTD=
EXTT0=
EXTT1=
EXTT2=
EXTT3=
EXTT4=
EXTT5=
EXTT6=
EXTT7=
EXTT8=
EXTT9=
EXTT10=
EXTT11=
EXTT12=
PLAYORDER=
